<?xml version="1.0" encoding="UTF-8" standalone="no"?>
<!-- Created by diasvg.py -->
<svg width="15.550cm" height="8.279cm" viewBox="9.183 4.426 24.733 12.705"
 xmlns="http://www.w3.org/2000/svg"
 xmlns:xlink="http://www.w3.org/1999/xlink">
<ellipse cx="21.301" cy="5.442" rx="0.162" ry="0.156" fill="#FFFFFF" stroke="none"  /><ellipse cx="21.301" cy="5.442" rx="0.162" ry="0.156" fill="none" stroke="#000000"  stroke-width="0.050" /><ellipse cx="22.357" cy="5.446" rx="0.160" ry="0.158" fill="#000000" stroke="none"  /><ellipse cx="22.357" cy="5.446" rx="0.160" ry="0.158" fill="none" stroke="#000000"  stroke-width="0.050" /><ellipse cx="24.377" cy="5.447" rx="0.162" ry="0.156" fill="#FFFFFF" stroke="none"  /><ellipse cx="24.377" cy="5.447" rx="0.162" ry="0.156" fill="none" stroke="#000000"  stroke-width="0.050" /><line x1="19.012" y1="5.422" x2="21.113" y2="5.440" stroke="#000000" stroke-width="0.050" />
<line x1="21.488" y1="5.442" x2="22.174" y2="5.445" stroke="#000000" stroke-width="0.050" />
<line x1="22.543" y1="5.446" x2="24.189" y2="5.447" stroke="#000000" stroke-width="0.050" />
<polyline fill="none" stroke="#000000" stroke-width="0.050"  points="21.300,5.772 21.300,6.179 21.391,6.224 21.209,6.314 21.391,6.404 21.209,6.495 21.391,6.585 21.209,6.675 21.300,6.720 21.300,7.127 "/>
<line x1="21.301" y1="5.772" x2="21.301" y2="5.623" stroke="#000000" stroke-width="0.050" />
<ellipse cx="16.975" cy="7.744" rx="0.162" ry="0.156" fill="#FFFFFF" stroke="none"  /><ellipse cx="16.975" cy="7.744" rx="0.162" ry="0.156" fill="none" stroke="#000000"  stroke-width="0.050" /><ellipse cx="13.405" cy="5.435" rx="0.162" ry="0.156" fill="#FFFFFF" stroke="none"  /><ellipse cx="13.405" cy="5.435" rx="0.162" ry="0.156" fill="none" stroke="#000000"  stroke-width="0.050" /><ellipse cx="11.824" cy="5.430" rx="0.162" ry="0.156" fill="#FFFFFF" stroke="none"  /><ellipse cx="11.824" cy="5.430" rx="0.162" ry="0.156" fill="none" stroke="#000000"  stroke-width="0.050" /><line x1="13.408" y1="6.710" x2="13.408" y2="7.280" stroke="#000000" stroke-width="0.050" />
<line x1="12.983" y1="7.280" x2="13.833" y2="7.280" stroke="#000000" stroke-width="0.050" />
<path stroke="#000000" fill="none" stroke-width="0.050"  d="M 12.983,7.850 C 13.153,7.479 13.663,7.479 13.833,7.850 "/>
<line x1="13.833" y1="6.852" x2="13.833" y2="7.137" stroke="#000000" stroke-width="0.050" />
<line x1="13.620" y1="6.995" x2="14.045" y2="6.995" stroke="#000000" stroke-width="0.050" />
<line x1="13.620" y1="7.992" x2="14.045" y2="7.992" stroke="#000000" stroke-width="0.050" />
<line x1="13.408" y1="7.565" x2="13.408" y2="8.135" stroke="#000000" stroke-width="0.050" />
<ellipse cx="22.355" cy="11.567" rx="0.160" ry="0.158" fill="#000000" stroke="none"  /><ellipse cx="22.355" cy="11.567" rx="0.160" ry="0.158" fill="none" stroke="#000000"  stroke-width="0.050" /><ellipse cx="24.373" cy="11.571" rx="0.162" ry="0.156" fill="#FFFFFF" stroke="none"  /><ellipse cx="24.373" cy="11.571" rx="0.162" ry="0.156" fill="none" stroke="#000000"  stroke-width="0.050" /><ellipse cx="16.979" cy="11.569" rx="0.160" ry="0.158" fill="#000000" stroke="none"  /><ellipse cx="16.979" cy="11.569" rx="0.160" ry="0.158" fill="none" stroke="#000000"  stroke-width="0.050" /><polyline fill="none" stroke="#000000" stroke-width="0.050"  points="16.975,8.517 16.975,9.342 17.071,9.434 16.878,9.617 17.071,9.801 16.878,9.984 17.071,10.167 16.878,10.351 16.975,10.442 16.975,11.267 "/>
<line x1="16.554" y1="10.416" x2="17.540" y2="9.431" stroke="#000000" stroke-width="0.050" />
<polygon fill="#000000" stroke="none" stroke-width="0.050" points="17.725,9.245 17.602,9.616 17.540,9.431 17.354,9.369 "/>
<polygon fill="none" stroke="#000000" stroke-width="0.050"  points="17.725,9.245 17.602,9.616 17.540,9.431 17.354,9.369 "/>
<line x1="16.975" y1="7.900" x2="16.975" y2="8.517" stroke="#000000" stroke-width="0.050" />
<line x1="16.984" y1="6.382" x2="16.975" y2="7.587" stroke="#000000" stroke-width="0.050" />
<line x1="22.357" y1="9.002" x2="22.357" y2="9.572" stroke="#000000" stroke-width="0.050" />
<line x1="21.932" y1="9.572" x2="22.782" y2="9.572" stroke="#000000" stroke-width="0.050" />
<path stroke="#000000" fill="none" stroke-width="0.050"  d="M 21.932,10.142 C 22.102,9.772 22.612,9.772 22.782,10.142 "/>
<line x1="22.782" y1="9.145" x2="22.782" y2="9.430" stroke="#000000" stroke-width="0.050" />
<line x1="22.569" y1="9.287" x2="22.994" y2="9.287" stroke="#000000" stroke-width="0.050" />
<line x1="22.569" y1="10.285" x2="22.994" y2="10.285" stroke="#000000" stroke-width="0.050" />
<line x1="22.357" y1="9.857" x2="22.357" y2="10.427" stroke="#000000" stroke-width="0.050" />
<line x1="22.357" y1="5.621" x2="22.357" y2="9.004" stroke="#000000" stroke-width="0.050" />
<line x1="22.356" y1="10.425" x2="22.355" y2="11.385" stroke="#000000" stroke-width="0.050" />
<line x1="24.185" y1="11.570" x2="22.541" y2="11.567" stroke="#000000" stroke-width="0.050" />
<line x1="17.164" y1="11.569" x2="22.170" y2="11.567" stroke="#000000" stroke-width="0.050" />
<line x1="13.405" y1="5.591" x2="13.407" y2="6.710" stroke="#000000" stroke-width="0.050" />
<line x1="12.010" y1="5.431" x2="13.218" y2="5.434" stroke="#000000" stroke-width="0.050" />
<line x1="13.592" y1="5.433" x2="14.972" y2="5.421" stroke="#000000" stroke-width="0.050" />
<line x1="16.500" y1="7.737" x2="16.498" y2="9.010" stroke="#000000" stroke-width="0.050" />
<polygon fill="#000000" stroke="none" stroke-width="0.050" points="16.498,9.272 16.323,8.922 16.498,9.010 16.673,8.923 "/>
<polygon fill="none" stroke="#000000" stroke-width="0.050"  points="16.498,9.272 16.323,8.922 16.498,9.010 16.673,8.923 "/>
<text x="15.338" y="8.570"  fill="#000000" text-anchor="start" font-size="0.80" font-family="Gillius ADF Cd" font-style="normal" font-weight="400">
I</text>
<text x="15.502" y="8.689"  fill="#000000" text-anchor="start" font-size="0.49" font-family="Gillius ADF Cd" font-style="normal" font-weight="400">
Adj</text>
<text x="17.475" y="8.570"  fill="#000000" text-anchor="start" font-size="0.80" font-family="Gillius ADF Cd" font-style="normal" font-weight="400">
Adjust</text>
<text x="17.537" y="10.313"  fill="#000000" text-anchor="start" font-size="0.80" font-family="Gillius ADF Cd" font-style="normal" font-weight="400">
R</text>
<text x="17.905" y="10.434"  fill="#000000" text-anchor="start" font-size="0.63" font-family="Gillius ADF Cd" font-style="normal" font-weight="700">
2</text>
<text x="11.581" y="7.825"  fill="#000000" text-anchor="start" font-size="0.80" font-family="Droid Sans" font-style="normal" font-weight="400">
0.1</text>
<text x="12.494" y="7.811"  fill="#000000" text-anchor="start" font-size="0.80" font-family="Gillius ADF Cd" font-style="normal" font-weight="400">
µF</text>
<text x="24.168" y="9.820"  fill="#000000" text-anchor="start" font-size="0.80" font-family="Gillius ADF Cd" font-style="normal" font-weight="400">
µF</text>
<text x="23.228" y="9.880"  fill="#000000" text-anchor="start" font-size="0.80" font-family="Droid Sans" font-style="normal" font-weight="400">
1.0</text>
<text x="23.305" y="9.104"  fill="#000000" text-anchor="start" font-size="0.80" font-family="Gillius ADF Cd" font-style="normal" font-weight="400">
C</text>
<text x="23.699" y="9.236"  fill="#000000" text-anchor="start" font-size="0.80" font-family="Gillius ADF Cd" font-style="normal" font-weight="400">
o**</text>
<text x="11.638" y="7.075"  fill="#000000" text-anchor="start" font-size="0.80" font-family="Gillius ADF Cd" font-style="normal" font-weight="400">
C</text>
<text x="11.986" y="7.206"  fill="#000000" text-anchor="start" font-size="0.63" font-family="Gillius ADF Cd" font-style="normal" font-weight="700">
in*</text>
<line x1="16.978" y1="11.267" x2="16.978" y2="11.399" stroke="#000000" stroke-width="0.050" />
<line x1="16.989" y1="11.839" x2="16.988" y2="12.381" stroke="#000000" stroke-width="0.050" />
<line x1="16.670" y1="12.382" x2="17.306" y2="12.379" stroke="#000000" stroke-width="0.050" />
<line x1="16.764" y1="12.534" x2="17.212" y2="12.533" stroke="#000000" stroke-width="0.050" />
<line x1="16.864" y1="12.680" x2="17.112" y2="12.680" stroke="#000000" stroke-width="0.050" />
<line x1="16.988" y1="12.481" x2="16.988" y2="12.433" stroke="#FFFFFF" stroke-width="0.010" stroke-dasharray="0.09,0.09"/>
<line x1="16.988" y1="12.633" x2="16.988" y2="12.580" stroke="#FFFFFF" stroke-width="0.010" stroke-dasharray="0.10,0.10"/>
<line x1="16.989" y1="12.110" x2="16.982" y2="11.752" stroke="#000000" stroke-width="0.050" />
<text x="20.872" y="4.924"  fill="#000000" text-anchor="start" font-size="0.80" font-family="Gillius ADF Cd" font-style="normal" font-weight="400">
V</text>
<text x="21.130" y="5.049"  fill="#000000" text-anchor="start" font-size="0.63" font-family="Gillius ADF Cd" font-style="normal" font-weight="700">
out</text>
<text x="11.759" y="4.988"  fill="#000000" text-anchor="start" font-size="0.80" font-family="Gillius ADF Cd" font-style="normal" font-weight="400">
V</text>
<text x="12.082" y="5.127"  fill="#000000" text-anchor="start" font-size="0.63" font-family="Gillius ADF Cd" font-style="normal" font-weight="700">
in</text>
<line x1="21.300" y1="7.389" x2="21.300" y2="7.126" stroke="#000000" stroke-width="0.050" />
<line x1="13.412" y1="11.573" x2="15.097" y2="11.568" stroke="#000000" stroke-width="0.050" />
<line x1="13.407" y1="10.219" x2="13.407" y2="11.586" stroke="#000000" stroke-width="0.050" />
<line x1="13.408" y1="8.135" x2="13.407" y2="10.902" stroke="#000000" stroke-width="0.050" />
<line x1="16.795" y1="11.569" x2="14.254" y2="11.570" stroke="#000000" stroke-width="0.050" />
<line x1="21.298" y1="7.023" x2="21.301" y2="7.755" stroke="#000000" stroke-width="0.050" />
<line x1="21.309" y1="7.758" x2="19.686" y2="7.754" stroke="#000000" stroke-width="0.050" />
<line x1="17.163" y1="7.744" x2="20.497" y2="7.756" stroke="#000000" stroke-width="0.050" />
<text x="21.834" y="7.368"  fill="#000000" text-anchor="start" font-size="0.63" font-family="Gillius ADF Cd" font-style="normal" font-weight="700">
1</text>
<text x="21.512" y="7.246"  fill="#000000" text-anchor="start" font-size="0.80" font-family="Gillius ADF Cd" font-style="normal" font-weight="400">
R</text>
<text x="19.500" y="6.969"  fill="#000000" text-anchor="start" font-size="0.80" font-family="Gillius ADF Cd" font-style="normal" font-weight="400">
240</text>
<text x="18.372" y="9.874"  fill="#000000" text-anchor="start" font-size="0.80" font-family="sans" font-style="normal" font-weight="400">
?</text>
<rect x="15.020" y="4.476" width="3.942" height="1.856" fill="#FFFFFF" stroke="none" stroke-width="0"/>
<rect x="15.020" y="4.476" width="3.942" height="1.856" fill="none" stroke="#000000" stroke-width="0.100" />
<text x="15.925" y="5.625"  fill="#000000" text-anchor="start" font-size="0.80" font-family="sans" font-style="normal" font-weight="400">
LM317</text>
<text x="20.625" y="7.000"  fill="#000000" text-anchor="start" font-size="0.71" font-family="Gillius ADF Cd" font-style="normal" font-weight="400">
Ω</text>
<text x="19.625" y="9.875"  fill="#000000" text-anchor="start" font-size="0.71" font-family="Gillius ADF Cd" font-style="normal" font-weight="400">
Ω</text>
</svg>